<svg width="165" height="13" viewBox="0 0 165 13" fill="none" xmlns="http://www.w3.org/2000/svg">
<path d="M85.0099 6.08328C85.0404 6.77037 84.9401 7.45698 84.7146 8.1051C84.5305 8.53214 84.3096 8.94165 84.0546 9.32884C83.9493 9.49898 83.8564 9.67682 83.7766 9.8609C83.745 9.98294 83.745 10.1113 83.7766 10.2333C83.7734 10.3208 83.7991 10.4068 83.8495 10.4775C83.8999 10.5483 83.9721 10.5997 84.0546 10.6235C84.3347 10.7263 84.6266 10.7918 84.9231 10.8186V11.4393H83.8635H82.2481H79.5209V10.6413C80.345 10.5874 81.1548 10.3957 81.918 10.0737C82.6471 9.7805 83.2922 9.3048 83.794 8.69037C84.3048 7.9976 84.5628 7.14456 84.5236 6.27836C84.5551 5.4222 84.2557 4.5877 83.6898 3.95504C83.4125 3.64818 83.0731 3.40672 82.6951 3.24745C82.3171 3.08818 81.9097 3.01493 81.5011 3.0328C80.7942 3.00705 80.0985 3.21889 79.5209 3.6358C78.9733 4.10926 78.5143 4.6801 78.1661 5.32066C77.7318 5.9946 77.2802 6.73948 76.7938 7.53757C76.3074 8.33566 75.6821 9.31111 75.0568 10.0028C74.5791 10.6891 73.9919 11.2886 73.3198 11.7763C72.5788 12.221 71.7296 12.4424 70.8705 12.4148C69.8933 12.4505 68.9289 12.1781 68.1087 11.6344C67.3479 11.1413 66.7443 10.4326 66.3716 9.59487C66.0514 8.66839 65.927 7.68312 66.0069 6.70401C65.9795 5.94604 66.0854 5.1892 66.3195 4.46936C66.4963 3.97965 66.7112 3.50519 66.9622 3.05053C67.1585 2.78635 67.2841 2.47468 67.327 2.14603C67.327 2.04725 67.2886 1.95252 67.2202 1.88267C67.1518 1.81283 67.059 1.77359 66.9622 1.77359C66.6834 1.66321 66.3913 1.59163 66.0937 1.56077V0.957764H67.3791H72.347V1.66718C71.3699 1.73877 70.4062 1.94151 69.4809 2.27018C68.6314 2.56064 67.879 3.08917 67.3096 3.79542C66.7267 4.57021 66.4369 5.5336 66.4932 6.50892C66.4844 7.08428 66.6031 7.65422 66.8406 8.17605C67.0766 8.71107 67.4637 9.16192 67.9523 9.47073C68.5582 9.82745 69.2513 9.99976 69.9499 9.96731C70.6059 9.98942 71.2533 9.81027 71.8085 9.45299C72.3886 9.06451 72.8947 8.57175 73.3024 7.99869C73.8012 7.29587 74.265 6.56779 74.692 5.81725C75.1957 4.98369 75.6995 4.20333 76.2206 3.47618C76.6874 2.78057 77.2763 2.17924 77.9576 1.70265C78.7353 1.25635 79.6198 1.04132 80.511 1.08191C81.4071 1.05195 82.2911 1.29923 83.0471 1.79132C83.6911 2.23095 84.2024 2.8451 84.5236 3.56486C84.8624 4.35846 85.0284 5.21775 85.0099 6.08328Z" fill="white"/>
<path d="M80.0248 3.63583C80.346 2.91607 80.8572 2.30193 81.5012 1.8623C82.2639 1.37082 83.1532 1.12374 84.0547 1.15289C84.9229 1.12181 85.7826 1.33665 86.5386 1.77362C87.2199 2.25022 87.8088 2.85154 88.2756 3.54716C88.7967 4.2743 89.3178 5.05466 89.8216 5.88822C90.2544 6.63902 90.724 7.3671 91.2286 8.06967C91.6362 8.64273 92.1424 9.13548 92.7224 9.52396C93.2777 9.88124 93.9251 10.0604 94.581 10.0383C95.2797 10.0707 95.9728 9.89843 96.5786 9.5417C97.0673 9.23289 97.4544 8.78205 97.6903 8.24702C97.9338 7.72663 98.0585 7.15662 98.0551 6.5799C98.1369 5.58537 97.8588 4.59471 97.2734 3.79545C96.7041 3.08921 95.9517 2.56067 95.1021 2.27021C94.1657 1.93848 93.1902 1.73569 92.2013 1.66721V1.06421H97.1692H98.4546V1.5608C98.1573 1.59329 97.8654 1.66482 97.5861 1.77362C97.5065 1.79665 97.4364 1.84539 97.3863 1.91255C97.3362 1.9797 97.3088 2.06164 97.3082 2.14606C97.351 2.47472 97.4767 2.78638 97.6729 3.05057C97.931 3.50151 98.1462 3.97662 98.3156 4.46939C98.5651 5.18575 98.6771 5.94444 98.6457 6.70405C98.6544 7.67325 98.4651 8.63368 98.0898 9.52396C97.7471 10.3488 97.1806 11.0565 96.457 11.5635C95.6305 12.1075 94.6605 12.3799 93.6778 12.3439C92.8437 12.3645 92.0202 12.1497 91.2981 11.7231C90.592 11.247 89.9744 10.6465 89.4742 9.94961C88.9357 9.22246 88.3799 8.40664 87.824 7.4844C87.2682 6.56216 86.8513 6.01237 86.4518 5.32069C86.1036 4.70059 85.6508 4.14821 85.1142 3.68904C84.542 3.27466 83.8526 3.06288 83.1514 3.08604C82.7429 3.06817 82.3354 3.14142 81.9575 3.30069C81.5795 3.45996 81.24 3.70142 80.9628 4.00827C80.3969 4.64094 80.0974 5.47544 80.129 6.3316C80.0897 7.1978 80.3478 8.05083 80.8585 8.74361C81.3604 9.35804 82.0055 9.83374 82.7345 10.127C83.4947 10.4306 84.2987 10.6044 85.1142 10.6413V11.2443H82.3871H80.7717H79.7295V10.8186C80.0196 10.7983 80.3058 10.7386 80.5806 10.6413C80.6648 10.6181 80.7392 10.5674 80.7925 10.4969C80.8459 10.4265 80.8751 10.3401 80.8759 10.2511C80.8739 10.1198 80.838 9.99126 80.7717 9.87867C80.6991 9.69114 80.6058 9.51264 80.4938 9.34661C80.2683 8.9476 80.071 8.53273 79.9032 8.10514C79.6777 7.45702 79.5774 6.7704 79.6079 6.08331C79.5774 5.24668 79.7194 4.41284 80.0248 3.63583Z" fill="white"/>
<path d="M64.0269 6.8281H15.7897C15.7436 6.8281 15.6994 6.80941 15.6668 6.77615C15.6343 6.74289 15.616 6.69778 15.616 6.65074C15.616 6.6037 15.6343 6.55859 15.6668 6.52533C15.6994 6.49207 15.7436 6.47339 15.7897 6.47339H64.0269C64.0729 6.47339 64.1171 6.49207 64.1497 6.52533C64.1823 6.55859 64.2006 6.6037 64.2006 6.65074C64.2006 6.69778 64.1823 6.74289 64.1497 6.77615C64.1171 6.80941 64.0729 6.8281 64.0269 6.8281Z" fill="white"/>
<path d="M9.64054 8.97412L13.8963 6.88135L11.117 10.7654C11.0271 10.9079 10.9089 11.0294 10.7699 11.1221C10.631 11.2148 10.4745 11.2765 10.3106 11.3033C10.1467 11.33 9.97909 11.3213 9.81875 11.2775C9.65841 11.2337 9.50891 11.1559 9.37999 11.0492C9.24257 10.9556 9.12557 10.834 9.03634 10.6921C8.94712 10.5501 8.88759 10.3909 8.86149 10.2244C8.83539 10.0579 8.84329 9.88761 8.88469 9.72434C8.92609 9.56107 9.0001 9.4083 9.10206 9.27562C9.25136 9.12699 9.43754 9.02275 9.64054 8.97412Z" fill="white"/>
<path d="M9.64054 4.32746L13.8963 6.42023L11.117 2.53619C11.0271 2.39372 10.9089 2.27217 10.7699 2.17949C10.631 2.08681 10.4745 2.02507 10.3106 1.9983C10.1467 1.97153 9.97909 1.98032 9.81875 2.02411C9.65841 2.06789 9.50891 2.14569 9.37999 2.25243C9.24257 2.346 9.12557 2.46757 9.03634 2.6095C8.94712 2.75143 8.88759 2.91066 8.86149 3.07719C8.83539 3.24372 8.84329 3.41397 8.88469 3.57724C8.92609 3.74051 9.0001 3.89328 9.10206 4.02596C9.25136 4.17459 9.43754 4.27883 9.64054 4.32746Z" fill="white"/>
<path d="M7.74709 8.21151C8.5913 8.21151 9.27567 7.51275 9.27567 6.6508C9.27567 5.78884 8.5913 5.09009 7.74709 5.09009C6.90288 5.09009 6.21851 5.78884 6.21851 6.6508C6.21851 7.51275 6.90288 8.21151 7.74709 8.21151Z" fill="white"/>
<path d="M4.34257 7.62618C4.8702 7.62618 5.29793 7.18946 5.29793 6.65074C5.29793 6.11201 4.8702 5.67529 4.34257 5.67529C3.81494 5.67529 3.38721 6.11201 3.38721 6.65074C3.38721 7.18946 3.81494 7.62618 4.34257 7.62618Z" fill="white"/>
<path d="M1.73708 7.37788C2.13041 7.37788 2.44926 7.05233 2.44926 6.65073C2.44926 6.24914 2.13041 5.92358 1.73708 5.92358C1.34376 5.92358 1.0249 6.24914 1.0249 6.65073C1.0249 7.05233 1.34376 7.37788 1.73708 7.37788Z" fill="white"/>
<path d="M100.522 6.81027H148.776C148.821 6.80628 148.863 6.78631 148.895 6.75387C148.926 6.72144 148.946 6.67861 148.95 6.63292C148.95 6.58588 148.932 6.54077 148.899 6.50751C148.866 6.47425 148.822 6.45557 148.776 6.45557H100.522C100.476 6.45557 100.431 6.47425 100.399 6.50751C100.366 6.54077 100.348 6.58588 100.348 6.63292C100.352 6.67861 100.371 6.72144 100.403 6.75387C100.435 6.78631 100.477 6.80628 100.522 6.81027Z" fill="white"/>
<path d="M154.908 8.86762L150.687 6.86353L153.432 10.7476C153.523 10.8879 153.642 11.0073 153.781 11.0984C153.92 11.1895 154.076 11.2503 154.239 11.277C154.402 11.3036 154.569 11.2955 154.729 11.2533C154.889 11.211 155.039 11.1354 155.169 11.0313C155.303 10.9347 155.416 10.8113 155.502 10.6687C155.588 10.526 155.645 10.3671 155.67 10.2014C155.694 10.0356 155.685 9.86662 155.644 9.70446C155.603 9.54229 155.529 9.39036 155.429 9.2578C155.289 9.08673 155.11 8.95286 154.908 8.86762Z" fill="white"/>
<path d="M154.908 4.30972L150.687 6.40249L153.432 2.50071C153.629 2.27196 153.903 2.12679 154.2 2.09367C154.497 2.06054 154.796 2.14184 155.037 2.32164C155.278 2.50144 155.445 2.76677 155.505 3.06563C155.564 3.3645 155.513 3.67535 155.36 3.93728C155.238 4.09453 155.084 4.22183 154.908 4.30972Z" fill="white"/>
<path d="M156.801 8.19368C157.645 8.19368 158.33 7.49493 158.33 6.63298C158.33 5.77102 157.645 5.07227 156.801 5.07227C155.957 5.07227 155.273 5.77102 155.273 6.63298C155.273 7.49493 155.957 8.19368 156.801 8.19368Z" fill="white"/>
<path d="M160.223 7.60836C160.751 7.60836 161.179 7.17164 161.179 6.63291C161.179 6.09419 160.751 5.65747 160.223 5.65747C159.696 5.65747 159.268 6.09419 159.268 6.63291C159.268 7.17164 159.696 7.60836 160.223 7.60836Z" fill="white"/>
<path d="M162.811 7.36006C163.205 7.36006 163.523 7.0345 163.523 6.63291C163.523 6.23132 163.205 5.90576 162.811 5.90576C162.418 5.90576 162.099 6.23132 162.099 6.63291C162.099 7.0345 162.418 7.36006 162.811 7.36006Z" fill="white"/>
</svg>
