<svg width="31" height="31" viewBox="0 0 31 31" fill="none" xmlns="http://www.w3.org/2000/svg">
<path d="M21.7045 4.98081C21.7045 4.81763 21.6397 4.66114 21.5243 4.54576C21.409 4.43037 21.2525 4.36555 21.0893 4.36555H18.013C16.4639 4.28839 14.9473 4.82748 13.7945 5.86503C12.6416 6.90259 11.9463 8.35426 11.8604 9.90287V13.2253H8.78414C8.62096 13.2253 8.46447 13.2901 8.34909 13.4055C8.23371 13.5208 8.16888 13.6773 8.16888 13.8405V17.0398C8.16888 17.203 8.23371 17.3595 8.34909 17.4749C8.46447 17.5903 8.62096 17.6551 8.78414 17.6551H11.8604V25.8995C11.8604 26.0627 11.9252 26.2192 12.0406 26.3346C12.156 26.45 12.3125 26.5148 12.4757 26.5148H16.1672C16.3304 26.5148 16.4869 26.45 16.6023 26.3346C16.7177 26.2192 16.7825 26.0627 16.7825 25.8995V17.6551H20.0064C20.1433 17.6571 20.2768 17.6134 20.386 17.5309C20.4952 17.4485 20.5738 17.3319 20.6094 17.1998L21.4954 14.0005C21.5198 13.9096 21.5231 13.8143 21.505 13.7219C21.4868 13.6295 21.4477 13.5425 21.3907 13.4676C21.3336 13.3927 21.2601 13.3319 21.1759 13.2899C21.0916 13.2479 20.9988 13.2258 20.9047 13.2253H16.7825V9.90287C16.8131 9.59828 16.9561 9.31605 17.1837 9.11127C17.4112 8.90649 17.7069 8.79387 18.013 8.7954H21.0893C21.2525 8.7954 21.409 8.73058 21.5243 8.6152C21.6397 8.49981 21.7045 8.34332 21.7045 8.18015V4.98081Z" fill="#C00000"/>
</svg>
