<svg width="32" height="31" viewBox="0 0 32 31" fill="none" xmlns="http://www.w3.org/2000/svg">
<path d="M15.6919 28.4851C14.3719 28.4851 13.0519 28.4851 11.6919 28.4851C10.7619 28.4851 9.83191 28.4051 8.91191 28.2951C7.80774 28.1577 6.75385 27.7526 5.84191 27.1151C4.66131 26.318 3.77028 25.1604 3.30191 23.8151C3.01914 23.0097 2.8541 22.1676 2.81191 21.3151C2.81191 20.3151 2.73191 19.3751 2.71191 18.4051C2.71191 16.9351 2.71191 15.4751 2.71191 14.0051C2.71191 13.1851 2.71191 12.3751 2.71191 11.5551C2.71191 11.0551 2.71191 10.5551 2.77191 10.0751C2.81118 8.80184 3.1286 7.55261 3.70191 6.41508C4.4747 4.906 5.80573 3.75794 7.41191 3.21508C8.4037 2.87512 9.44354 2.69619 10.4919 2.68508C11.7219 2.68508 12.9519 2.61508 14.1819 2.61508C15.9919 2.61508 17.8019 2.61508 19.6119 2.61508C20.6777 2.60186 21.7424 2.68891 22.7919 2.87508C23.6983 3.04145 24.5641 3.38097 25.3419 3.87508C26.5337 4.63297 27.4491 5.75526 27.9519 7.07508C28.28 7.91859 28.4659 8.81071 28.5019 9.71508C28.5519 10.9951 28.5919 12.2851 28.6119 13.5751C28.6319 14.8651 28.6119 15.8651 28.6119 17.0051C28.6119 18.1451 28.6119 19.3951 28.5519 20.5851C28.5427 21.5629 28.4014 22.535 28.1319 23.4751C27.6698 25.0655 26.6325 26.4272 25.2219 27.2951C24.3664 27.8307 23.4037 28.172 22.4019 28.2951C21.6419 28.3851 20.8719 28.4451 20.1019 28.4651C18.6319 28.4651 17.1519 28.5151 15.6819 28.5351L15.6919 28.4851ZM15.6919 4.97508L10.7719 5.05508C9.91034 5.05513 9.05382 5.18665 8.23191 5.44508C7.21398 5.78637 6.36342 6.50113 5.85191 7.44508C5.42886 8.24095 5.1961 9.12407 5.17191 10.0251C5.11191 11.0984 5.08191 12.1684 5.08191 13.2351C5.08191 15.6451 5.08191 18.0651 5.14191 20.4751C5.13708 21.2656 5.24139 22.0531 5.45191 22.8151C5.6072 23.3615 5.8692 23.8716 6.22277 24.3162C6.57635 24.7607 7.0145 25.1308 7.51191 25.4051C8.30778 25.8176 9.18595 26.0465 10.0819 26.0751C10.9419 26.0751 11.8019 26.1351 12.6619 26.1551H15.3519H18.4519L20.6019 26.0951C21.2748 26.0895 21.9453 26.0124 22.6019 25.8651C23.1778 25.7468 23.7236 25.513 24.2066 25.1778C24.6896 24.8427 25.0996 24.4131 25.4119 23.9151C25.9114 23.0724 26.1836 22.1145 26.2019 21.1351C26.3019 20.0551 26.3019 18.9551 26.3019 17.8151C26.3019 16.1851 26.3019 14.5551 26.3019 12.9251C26.3019 11.8451 26.2419 10.7651 26.1919 9.68508C26.1402 9.03885 25.9778 8.40632 25.7119 7.81508C25.352 6.96936 24.7227 6.26625 23.9219 5.81508C23.4301 5.49568 22.8792 5.27806 22.3019 5.17508C21.5619 5.08508 20.8219 5.00508 20.0919 4.98508C18.5919 4.95508 17.1419 4.97508 15.6819 4.97508H15.6919Z" fill="#C00000"/>
<path d="M22.3019 15.535C22.3059 16.8507 21.9195 18.138 21.1916 19.234C20.4638 20.33 19.4272 21.1854 18.213 21.6921C16.9988 22.1988 15.6616 22.3339 14.3706 22.0804C13.0795 21.8269 11.8927 21.1961 10.9603 20.2679C10.0279 19.3397 9.39178 18.1557 9.13243 16.8659C8.87309 15.576 9.00218 14.2382 9.50338 13.0218C10.0046 11.8053 10.8553 10.7648 11.948 10.032C13.0407 9.29923 14.3263 8.90702 15.6419 8.90504C17.4039 8.90238 19.0949 9.59909 20.3436 10.8422C21.5923 12.0852 22.2966 13.7731 22.3019 15.535ZM15.6519 19.875C16.5068 19.877 17.343 19.6253 18.0547 19.1519C18.7664 18.6784 19.3217 18.0044 19.6502 17.2152C19.9787 16.426 20.0657 15.557 19.9001 14.7184C19.7346 13.8797 19.3239 13.1091 18.7202 12.5039C18.1164 11.8987 17.3467 11.4863 16.5084 11.3188C15.6701 11.1513 14.801 11.2363 14.0111 11.5629C13.2211 11.8896 12.5458 12.4433 12.0707 13.1539C11.5955 13.8646 11.3419 14.7002 11.3419 15.555C11.3446 16.7017 11.8019 17.8005 12.6137 18.6103C13.4254 19.4202 14.5253 19.875 15.6719 19.875H15.6519Z" fill="#C00000"/>
<path d="M21.0319 8.63503C21.0633 8.24415 21.2407 7.87943 21.5289 7.61347C21.817 7.34751 22.1948 7.19983 22.5869 7.19983C22.9791 7.19983 23.3568 7.34751 23.645 7.61347C23.9331 7.87943 24.1105 8.24415 24.1419 8.63503C24.1591 8.84972 24.1317 9.06565 24.0614 9.26922C23.9911 9.4728 23.8794 9.6596 23.7333 9.81787C23.5872 9.97614 23.4099 10.1025 23.2126 10.1888C23.0153 10.2752 22.8023 10.3198 22.5869 10.3198C22.3715 10.3198 22.1585 10.2752 21.9612 10.1888C21.7639 10.1025 21.5866 9.97614 21.4406 9.81787C21.2945 9.6596 21.1828 9.4728 21.1124 9.26922C21.0421 9.06565 21.0147 8.84972 21.0319 8.63503Z" fill="#C00000"/>
</svg>
