<svg width="182" height="40" viewBox="0 0 182 40" fill="none" xmlns="http://www.w3.org/2000/svg">
<path d="M141.029 2.79725C141.029 2.07666 140.838 1.85494 140.101 1.74408C130.357 0.392923 120.478 0.392923 110.734 1.74408C109.97 1.84109 109.766 2.09052 109.766 2.85268C109.766 10.0493 109.766 17.246 109.766 24.4426C109.732 26.2024 110.106 27.9457 110.857 29.5319C111.608 31.1181 112.715 32.5028 114.09 33.5747C117.25 36.1662 120.878 38.1056 124.77 39.284C125.15 39.3881 125.55 39.3881 125.929 39.284C130.249 38.069 134.235 35.8593 137.578 32.8264C138.681 31.8244 139.559 30.5929 140.152 29.2157C140.745 27.8384 141.039 26.3476 141.015 24.8445C141.015 21.3247 141.015 17.791 141.015 14.2574C141.015 10.4604 140.988 6.62191 141.029 2.79725ZM130.703 16.6547C130.703 15.7124 130.703 14.7701 130.703 13.8832C130.703 10.1556 130.703 6.42791 130.703 2.68639C130.723 2.5089 130.755 2.33298 130.799 2.15981L139.187 3.0744C139.842 3.0744 139.747 3.61484 139.747 4.04442V18.2206H130.703V16.6547ZM130.703 18.9828H139.774V20.1052H130.703V18.9828ZM130.703 20.8812H139.774V22.0037H130.703V20.8812ZM130.703 22.7797H139.774V23.9022H130.703V22.7797ZM130.703 24.6643H139.774V25.8006H130.703V24.6643ZM128.521 37.0529C127.56 37.5978 126.477 37.8839 125.377 37.8839C124.276 37.8839 123.194 37.5978 122.233 37.0529C119.18 35.7432 116.374 33.9052 113.94 31.6208C113.026 30.7247 112.304 29.6471 111.818 28.455C111.332 27.2629 111.093 25.982 111.116 24.692C111.116 17.8649 111.116 11.0378 111.116 4.21071C111.116 3.40698 111.307 3.12983 112.112 3.01897C117.597 2.30117 123.128 2.0047 128.657 2.13209C129.503 2.13209 129.394 2.67253 129.394 3.21297V19.4678C129.394 24.8583 129.394 30.235 129.394 35.6256C129.422 35.9278 129.352 36.2311 129.195 36.489C129.037 36.7469 128.8 36.945 128.521 37.0529ZM130.771 35.9859V26.6459H139.556C138.437 31.5238 134.672 33.741 130.771 35.9859Z" fill="#C00000"/>
<path d="M168.8 11.4166C168.8 8.64512 168.8 5.97063 168.8 3.32386C168.8 1.93811 168.8 1.93811 170.164 1.93811C170.764 1.93811 171.35 1.93811 171.951 1.93811C172.551 1.93811 172.878 2.17369 172.864 2.86656C172.864 5.08375 172.864 7.30095 172.864 9.51814V25.773C170.9 26.355 170.027 26.064 169.441 24.7475C168.251 25.2763 167.025 25.7163 165.772 26.064C165.119 26.2415 164.437 26.2787 163.77 26.1732C163.102 26.0678 162.464 25.822 161.895 25.4516C161.326 25.0813 160.84 24.5944 160.467 24.0222C160.094 23.4499 159.843 22.805 159.729 22.1284C159.095 19.6757 159.095 17.0982 159.729 14.6454C159.918 13.7815 160.304 12.9744 160.854 12.2885C161.405 11.6026 162.105 11.0569 162.9 10.6948C163.695 10.3327 164.562 10.1643 165.433 10.203C166.303 10.2417 167.152 10.4865 167.913 10.9177L168.8 11.4166ZM168.8 18.3453C168.8 17.2368 168.8 16.1282 168.8 15.0196C168.8 14.7033 168.677 14.3997 168.459 14.1743C168.11 13.8363 167.68 13.5983 167.211 13.4842C166.742 13.3702 166.252 13.3843 165.791 13.5251C165.329 13.6659 164.913 13.9284 164.584 14.2858C164.254 14.6432 164.024 15.0829 163.917 15.56C163.549 17.1862 163.466 18.8655 163.671 20.521C163.734 21.0484 163.934 21.5493 164.251 21.9717C164.568 22.3941 164.991 22.7227 165.475 22.9234C165.959 23.1241 166.487 23.1896 167.004 23.1132C167.522 23.0368 168.01 22.8212 168.418 22.4887C168.533 22.3858 168.626 22.2602 168.691 22.1197C168.757 21.9792 168.794 21.8266 168.8 21.6711C168.813 20.5071 168.786 19.3985 168.786 18.2899L168.8 18.3453Z" fill="#C00000"/>
<path d="M153.646 24.4704C152.762 25.1476 151.755 25.6386 150.682 25.9147C149.609 26.1907 148.493 26.2462 147.399 26.0779C146.612 26.0344 145.867 25.7102 145.293 25.1626C144.719 24.615 144.353 23.8791 144.261 23.0846C144.1 22.1699 144.018 21.2425 144.016 20.3131C144.016 17.3892 144.016 14.4653 144.016 11.5414C144.016 10.7792 144.275 10.5714 144.998 10.5575C148.053 10.5575 148.053 10.5575 148.053 13.5507V19.5094C148.053 19.7034 148.053 19.9113 148.053 20.1053C148.149 21.1446 148.053 22.3363 149.185 22.8768C149.76 23.0994 150.38 23.1766 150.99 23.1018C151.601 23.027 152.185 22.8023 152.691 22.4472C152.923 22.3086 153.032 21.7682 153.032 21.4217C153.032 18.193 153.032 14.9642 153.032 11.7215C153.032 10.8208 153.291 10.5021 154.164 10.5852C154.827 10.6406 155.493 10.6406 156.155 10.5852C156.81 10.5852 157.124 10.7931 157.124 11.4998C157.124 16.0728 157.124 20.6457 157.124 25.2187C157.124 25.8284 156.865 26.0917 156.278 26.0501H155.678C154.6 26.0363 153.646 26.1056 153.646 24.4704Z" fill="#C00000"/>
<path d="M177.366 13.7309C176.547 13.7309 175.852 13.7309 175.17 13.7309C174.924 13.7309 174.515 13.4814 174.501 13.329C174.426 12.5271 174.426 11.7197 174.501 10.9178C174.501 10.7792 174.951 10.5714 175.197 10.5575C177.011 10.5575 178.825 10.5575 180.653 10.5575C181.198 10.5575 181.417 10.7792 181.417 11.3335C181.417 15.9527 181.417 20.5718 181.417 25.191C181.417 25.7868 181.198 26.0224 180.612 26.0501C177.366 26.258 177.379 26.2719 177.379 23.0292L177.366 13.7309Z" fill="#C00000"/>
<path d="M101.705 0.635498H103.382V39.9214H101.705V0.635498Z" fill="#C00000"/>
<path d="M1.53251 7.6751V11.8323H0.400391V2.43698C2.02355 2.43698 3.64671 2.35383 5.24259 2.43698C5.81608 2.49687 6.34886 2.7656 6.7425 3.19354C7.13614 3.62147 7.36403 4.17968 7.38407 4.76503C7.45233 5.31384 7.34111 5.87022 7.06752 6.34849C6.79394 6.82675 6.37317 7.20038 5.87003 7.41181L5.29715 7.6751L7.69779 11.7908C7.53013 11.8704 7.34828 11.9145 7.16331 11.9204C6.97834 11.9263 6.79412 11.8939 6.62186 11.8252C6.4496 11.7565 6.2929 11.6529 6.1613 11.5207C6.02971 11.3886 5.92596 11.2305 5.85639 11.0563C5.50175 10.308 4.94251 9.67058 4.61515 8.89456C4.48189 8.44323 4.18112 8.06222 3.7764 7.83207C3.37169 7.60192 2.89475 7.54066 2.44639 7.66124C2.14273 7.69277 1.83696 7.6974 1.53251 7.6751ZM1.53251 3.61486C1.53251 4.48788 1.53251 5.29162 1.53251 6.09535C1.53251 6.24778 1.77803 6.53879 1.91443 6.53879C2.99878 6.60667 4.08718 6.55556 5.16075 6.38636C5.58359 6.28935 6.06099 5.49948 6.14283 5.00061C6.171 4.8275 6.16119 4.6502 6.11411 4.48138C6.06704 4.31256 5.98385 4.15639 5.87049 4.02401C5.75713 3.89164 5.61639 3.78632 5.45834 3.7156C5.30028 3.64487 5.1288 3.61047 4.95615 3.61486C3.87859 3.54558 2.76011 3.61486 1.54615 3.61486H1.53251Z" fill="#C00000"/>
<path d="M56.4334 7.70276L58.8886 11.7768C58.7216 11.875 58.5348 11.9331 58.3423 11.9469C58.1498 11.9606 57.9568 11.9295 57.7779 11.856C57.599 11.7825 57.439 11.6686 57.31 11.5228C57.1811 11.377 57.0865 11.2032 57.0336 11.0147C56.7056 10.3955 56.3459 9.79418 55.956 9.21322C54.9194 7.41175 54.9194 7.41175 52.7097 7.7859V11.8323H51.564V2.42306C53.1598 2.42306 54.7148 2.33992 56.2561 2.42306C56.8311 2.45963 57.3745 2.70273 57.7893 3.1089C58.2041 3.51507 58.4632 4.05786 58.5204 4.64026C58.6091 5.21469 58.502 5.8027 58.2167 6.30678C57.9314 6.81086 57.4851 7.20074 56.9518 7.41175L56.4334 7.70276ZM52.7097 6.4833C53.9237 6.4833 55.0422 6.56644 56.147 6.4833C56.3228 6.47192 56.4943 6.42348 56.6507 6.34105C56.807 6.25862 56.9448 6.14401 57.0551 6.00452C57.1655 5.86503 57.246 5.70373 57.2916 5.53087C57.3372 5.35802 57.3469 5.17741 57.32 5.00055C57.3331 4.82564 57.3108 4.64987 57.2546 4.48401C57.1985 4.31815 57.1095 4.16568 56.9933 4.03595C56.8771 3.90621 56.7361 3.80195 56.5788 3.72953C56.4216 3.65712 56.2514 3.61808 56.0788 3.6148C54.974 3.53166 53.8691 3.6148 52.7097 3.6148V6.4833Z" fill="#C00000"/>
<path d="M76.7571 2.43694H77.8619V12.1372C77.4661 11.9161 77.0955 11.6512 76.7571 11.3473C75.0793 9.35181 73.4153 7.41177 71.8057 5.43015C71.683 5.27772 71.5875 5.11143 71.4784 4.94514L71.2465 5.04214V11.86H70.0871V2.15979C70.4813 2.39957 70.8513 2.67805 71.1919 2.99124C72.7333 4.77885 74.2609 6.59418 75.7886 8.40951L76.798 9.54582L76.7571 2.43694Z" fill="#C00000"/>
<path d="M60.1572 18.6225L59.216 18.9412C57.852 16.7517 56.4198 16.0311 54.5648 16.627C53.8179 16.8707 53.1736 17.3628 52.7356 18.0239C52.2976 18.6851 52.0915 19.4768 52.1505 20.2715C52.1708 21.0568 52.451 21.8122 52.946 22.4157C53.441 23.0192 54.1219 23.4355 54.8785 23.5973C56.7608 24.0407 58.1385 23.3063 59.216 21.1722L60.1845 21.4633C59.9459 22.523 59.3278 23.4547 58.4504 24.0771C57.5731 24.6995 56.4992 24.9681 55.4378 24.8306C54.2907 24.7632 53.2079 24.2706 52.3946 23.4462C51.5812 22.6218 51.0939 21.5228 51.0249 20.3577C50.956 19.1925 51.3102 18.0422 52.0205 17.1247C52.7308 16.2072 53.7477 15.5863 54.8785 15.3798C55.9981 15.1527 57.1608 15.3595 58.1377 15.9597C59.1147 16.5598 59.8351 17.5097 60.1572 18.6225Z" fill="#C00000"/>
<path d="M40.8566 11.7769C39.9427 12.1649 39.4926 11.7769 39.2743 10.9732C39.0561 10.1695 38.6196 9.96159 37.9103 10.0032C37.0025 10.0771 36.0902 10.0771 35.1824 10.0032C35.0301 9.96231 34.871 9.95539 34.7159 9.9829C34.5609 10.0104 34.4135 10.0717 34.2839 10.1625C34.1543 10.2534 34.0456 10.3716 33.9652 10.5091C33.8849 10.6467 33.8348 10.8003 33.8184 10.9593C33.641 11.8324 33.15 12.1234 32.2225 11.7908C32.8636 10.2249 33.491 8.64513 34.1184 7.07924C34.7459 5.51335 35.2233 4.30775 35.8234 2.922C35.895 2.79363 35.9952 2.68411 36.116 2.60228C36.2369 2.52044 36.3749 2.46858 36.5191 2.45085C36.6675 2.44432 36.8153 2.47356 36.9504 2.53618C37.0855 2.5988 37.2041 2.69302 37.2966 2.81114C38.456 5.77664 39.6563 8.79757 40.8566 11.7769ZM38.415 8.79757L36.5054 3.94745L34.5958 8.79757H38.415Z" fill="#C00000"/>
<path d="M86.3187 24.7198C87.5326 21.7127 88.7193 18.7334 89.9469 15.7679C90.0316 15.6442 90.1435 15.5422 90.2737 15.47C90.4039 15.3978 90.5489 15.3575 90.6971 15.3522C90.8463 15.3601 90.9916 15.4031 91.1218 15.4776C91.2519 15.5521 91.3633 15.6562 91.4473 15.7818C92.6613 18.7473 93.8479 21.7266 95.0483 24.7198C94.2162 25.0108 93.6843 24.8445 93.4797 23.9438C93.2751 23.0431 92.7704 22.8768 91.9793 22.9322C91.0711 22.9988 90.1594 22.9988 89.2513 22.9322C89.108 22.8979 88.9593 22.895 88.8149 22.9237C88.6704 22.9524 88.5337 23.012 88.4137 23.0985C88.2937 23.185 88.1932 23.2965 88.1189 23.4255C88.0446 23.5545 87.9982 23.6981 87.9827 23.8468C87.7509 24.6782 87.3007 25.0663 86.3187 24.7198ZM92.6203 21.7543L90.6835 16.8765L88.7602 21.7543H92.6203Z" fill="#C00000"/>
<path d="M59.8162 11.7908C61.0438 8.79759 62.2577 5.77666 63.4717 2.81116C63.5535 2.6033 63.9627 2.45087 64.2355 2.43701C64.367 2.43913 64.4962 2.47288 64.6123 2.53551C64.7285 2.59814 64.8284 2.68786 64.9039 2.79731C66.1315 5.7628 67.3182 8.74216 68.5458 11.7908C67.7546 12.0264 67.1818 12.0125 67.0044 11.1118C66.8271 10.2111 66.2542 9.92004 65.3676 10.0032C64.5106 10.0933 63.6467 10.0933 62.7897 10.0032C62.6334 9.96446 62.4708 9.96085 62.313 9.99261C62.1553 10.0244 62.0063 10.0907 61.8764 10.1871C61.7465 10.2834 61.6388 10.4074 61.561 10.5503C61.4832 10.6933 61.437 10.8518 61.4257 11.0148C61.2211 11.8601 60.73 12.0957 59.8162 11.7908ZM64.181 3.94748L62.2577 8.79759H66.0633L64.181 3.94748Z" fill="#C00000"/>
<path d="M90.1652 7.24548V10.8207H95.171V11.8462H89.0194C89.0194 11.5967 89.0194 11.4027 89.0194 11.2087V2.47852H95.2256V3.53168H90.2061V6.13689H94.0389L94.1208 7.24548H90.1652Z" fill="#C00000"/>
<path d="M23.4793 3.75338L23.0292 4.32153C21.963 4.01571 20.8787 3.77965 19.7829 3.6148C19.6089 3.5828 19.4302 3.58935 19.2589 3.634C19.0877 3.67865 18.928 3.76035 18.7907 3.87351C18.6534 3.98667 18.5418 4.12862 18.4635 4.28966C18.3852 4.45069 18.342 4.62701 18.337 4.80654C18.337 5.65185 18.9917 5.81814 19.5919 5.98443C20.1921 6.15072 21.2014 6.31701 21.9925 6.56644C22.6031 6.67153 23.1534 7.00345 23.5366 7.49771C23.9197 7.99197 24.1084 8.61328 24.0658 9.24093C24.0053 9.91618 23.7146 10.5488 23.244 11.0295C22.7733 11.5102 22.1522 11.8088 21.4879 11.8739C20.6478 12.0033 19.7892 11.9163 18.9908 11.6209C18.1924 11.3255 17.4799 10.8312 16.9185 10.1832L17.5186 9.49037C18.3916 9.91995 19.1827 10.3772 20.0284 10.696C20.4757 10.8133 20.945 10.8133 21.3924 10.696C21.7967 10.6684 22.1763 10.4882 22.4564 10.1907C22.7366 9.89326 22.8971 9.50009 22.9064 9.0885C22.9064 8.20162 22.2244 7.85519 21.5424 7.70275C20.8604 7.55032 19.9329 7.3286 19.1418 7.10688C17.7778 6.70502 17.2049 6.03986 17.2185 4.9174C17.225 4.35619 17.4274 3.81554 17.7896 3.39174C18.1518 2.96794 18.6503 2.68851 19.1963 2.60321C19.9475 2.40754 20.7355 2.41051 21.4852 2.61184C22.2349 2.81318 22.9214 3.20617 23.4793 3.75338Z" fill="#C00000"/>
<path d="M15.5817 3.57326H10.6713V6.15075H14.5177V7.25935H10.6713V10.7791H15.5544V11.86H9.47095V2.45081H15.5817V3.57326Z" fill="#C00000"/>
<path d="M49.0951 16.6547L48.5359 17.3753C47.7843 17.0325 47.0094 16.7454 46.2171 16.5161C45.7351 16.4029 45.2294 16.4616 44.7849 16.6824C44.5822 16.8017 44.4068 16.9635 44.2704 17.1571C44.134 17.3506 44.0397 17.5714 43.9938 17.8049C43.9938 18.0959 44.4575 18.6086 44.8122 18.7333C45.6328 18.9897 46.4659 19.2024 47.3083 19.3708C48.986 19.8142 49.8453 20.8535 49.6817 22.2392C49.5778 22.9797 49.2086 23.6551 48.6447 24.1359C48.0808 24.6167 47.3621 24.869 46.6263 24.8445C45.8596 24.8784 45.0951 24.7394 44.3876 24.4375C43.6801 24.1357 43.0472 23.6783 42.5343 23.0984L43.1208 22.4333C44.0066 22.8841 44.9174 23.282 45.8488 23.625C46.0982 23.7047 46.361 23.7323 46.6212 23.7061C46.8814 23.6799 47.1337 23.6005 47.3629 23.4726C47.6304 23.3105 47.8634 23.0959 48.0484 22.8413C48.2334 22.5867 48.3667 22.2973 48.4404 21.9898C48.4404 21.5602 47.8266 20.8951 47.3492 20.6734C46.4565 20.3724 45.5452 20.1317 44.6212 19.9528C43.2572 19.5509 42.6707 18.8719 42.7116 17.7494C42.7251 17.1873 42.9337 16.6481 43.3006 16.2272C43.6675 15.8063 44.1691 15.5306 44.7167 15.4491C45.4869 15.2495 46.2948 15.2557 47.062 15.4669C47.8291 15.6782 48.5295 16.0873 49.0951 16.6547Z" fill="#C00000"/>
<path d="M35.9189 20.1607C35.9189 21.2554 35.9189 22.267 35.9189 23.2509C35.9189 23.4311 36.41 23.7082 36.6828 23.7221C38.0468 23.7221 39.4108 23.7221 40.8702 23.7221V24.7614H34.7868V15.3799H40.8839V16.4053C39.5199 16.4053 38.2377 16.4053 36.9283 16.4053C36.1644 16.4053 35.8644 16.5855 35.9053 17.4169C35.9735 19.4263 35.687 19.0937 37.5966 19.1214C38.2923 19.1214 38.9606 19.1214 39.7927 19.1214V20.1884L35.9189 20.1607Z" fill="#C00000"/>
<path d="M48.5086 2.43701H49.5862C49.5862 4.65421 49.7226 6.84369 49.5862 8.99159C49.4834 9.84054 49.0639 10.6171 48.4143 11.1611C47.7646 11.7051 46.9342 11.9752 46.0943 11.9155C45.2398 12.0218 44.3784 11.7819 43.6967 11.2476C43.0151 10.7133 42.568 9.92764 42.4525 9.06088C42.343 6.86357 42.343 4.66204 42.4525 2.46473H43.53C43.53 4.37706 43.53 6.27553 43.53 8.18786C43.5185 8.61883 43.6147 9.04574 43.8096 9.42869C44.0046 9.81163 44.2919 10.1381 44.6448 10.3776C44.9977 10.617 45.4046 10.7617 45.8275 10.798C46.2503 10.8343 46.6753 10.7611 47.0628 10.5852C47.5559 10.3737 47.9706 10.0091 48.2474 9.54368C48.5243 9.07824 48.6491 8.53576 48.6041 7.99386L48.5086 2.43701Z" fill="#C00000"/>
<path d="M61.9031 15.3522H63.0761C63.0761 17.1814 63.0761 18.9551 63.0761 20.7289C63.0761 22.5026 64.0173 23.7359 65.545 23.7221C65.9193 23.7253 66.2898 23.6451 66.6304 23.4874C66.971 23.3296 67.2735 23.0979 67.5166 22.8087C67.7597 22.5195 67.9375 22.1797 68.0375 21.8132C68.1376 21.4467 68.1574 21.0624 68.0957 20.6873C68.0957 19.0105 68.0957 17.3338 68.0957 15.657C68.1103 15.5523 68.1378 15.4499 68.1775 15.3522H69.2141C69.2141 17.5971 69.3505 19.7866 69.2141 21.9483C69.0212 22.7998 68.542 23.5562 67.8592 24.0874C67.1763 24.6186 66.3325 24.8912 65.4731 24.8584C64.6137 24.8256 63.7924 24.4893 63.1508 23.9076C62.5091 23.3258 62.0872 22.535 61.9577 21.6712C61.8076 19.5648 61.9031 17.4862 61.9031 15.3522Z" fill="#C00000"/>
<path d="M77.3436 15.3799V16.4053C75.9796 16.4053 74.6156 16.4053 73.2516 16.4053C72.4878 16.4053 72.215 16.5993 72.2422 17.4169C72.3241 19.4263 72.0376 19.0937 73.9472 19.1214C74.6702 19.1214 75.3931 19.1214 76.1706 19.1214V20.1746H72.2968C72.2968 21.2693 72.2968 22.3086 72.2968 23.3341C72.2968 23.4865 72.7469 23.7359 72.9924 23.7498C74.3564 23.7498 75.8296 23.7498 77.289 23.7498V24.7752H71.2465V15.3799H77.3436Z" fill="#C00000"/>
<path d="M176.561 5.16683C176.561 4.50529 176.82 3.87084 177.28 3.40306C177.74 2.93528 178.365 2.67249 179.016 2.67249C179.667 2.67249 180.292 2.93528 180.752 3.40306C181.213 3.87084 181.471 4.50529 181.471 5.16683C181.471 5.82837 181.213 6.46282 180.752 6.9306C180.292 7.39838 179.667 7.66117 179.016 7.66117C178.365 7.66117 177.74 7.39838 177.28 6.9306C176.82 6.46282 176.561 5.82837 176.561 5.16683Z" fill="#C00000"/>
<path d="M28.035 11.8462V3.53169H24.775V2.45081H32.4271V3.57326H29.1671V11.8877L28.035 11.8462Z" fill="#C00000"/>
<path d="M84.0817 11.8601H82.9223V3.54561H79.6487L79.5532 2.43701H87.2735V3.49018H84.0817V11.8601Z" fill="#C00000"/>
<path d="M80.699 23.7497H85.6776V24.7613H79.5942V15.3937H80.699V23.7497Z" fill="#C00000"/>
<path d="M70.9191 36.2077H64.863C67.1272 35.5148 74.6565 35.6672 75.5022 36.4294L74.5337 36.1938C73.9253 36.0163 73.2814 36.0062 72.6679 36.1644C72.0544 36.3227 71.4933 36.6437 71.0419 37.0945C70.7708 37.5163 70.581 37.9865 70.4827 38.4803C70.9977 38.7513 71.5569 38.9251 72.1331 38.993C72.3786 38.993 72.5969 38.217 72.856 37.732C72.9379 37.8567 73.3061 38.1893 73.2652 38.4526C73.2091 38.633 73.1173 38.7999 72.9953 38.9429C72.8733 39.0859 72.7238 39.202 72.5559 39.284C72.1571 39.4536 71.7151 39.4885 71.2952 39.3837C70.8754 39.279 70.4997 39.04 70.2235 38.702C69.5142 37.7181 70.1962 37.1084 70.9191 36.2077Z" fill="#C00000"/>
<path d="M83.5225 36.3323C83.9621 36.1625 84.42 36.0462 84.8865 35.9858C87.8873 35.9858 90.8881 35.9858 93.8889 35.9858V36.36L88.1738 36.5956C88.2444 36.7319 88.3265 36.8617 88.4193 36.9836C88.9649 37.6349 89.2377 38.3693 88.5693 39.0345C88.2155 39.3664 87.7619 39.5674 87.2818 39.6051C86.8016 39.6428 86.323 39.515 85.9232 39.2423C85.3503 38.7435 85.514 38.2307 86.2096 37.8566C86.346 38.2723 86.3596 38.8682 86.6461 39.0899C86.7839 39.1858 86.9402 39.2511 87.1046 39.2814C87.2689 39.3117 87.4378 39.3064 87.6 39.2658C87.7623 39.2253 87.9142 39.1504 88.046 39.046C88.1778 38.9417 88.2864 38.8103 88.3647 38.6603C88.5284 38.397 88.3647 37.6903 88.0237 37.3993C87.5689 36.9036 86.988 36.5455 86.3452 36.3645C85.7024 36.1835 85.0229 36.1868 84.3818 36.3738L83.5907 36.5817L83.5225 36.3323Z" fill="#C00000"/>
<path d="M82.9769 34.7803C82.6631 36.4847 81.6129 36.9559 79.5532 36.4155C80.1943 34.7664 81.872 35.681 82.9769 34.7803Z" fill="#C00000"/>
<path d="M76.0068 34.8496C77.0435 35.6395 78.653 34.8496 79.3213 36.3462C77.5209 37.0252 76.1432 36.5125 76.0068 34.8496Z" fill="#C00000"/>
<path d="M115.713 4.64026C115.713 4.66513 115.708 4.68975 115.698 4.71256C115.688 4.73537 115.674 4.75588 115.656 4.77281C115.638 4.78973 115.617 4.8027 115.594 4.81089C115.571 4.81908 115.546 4.82232 115.522 4.82041C115.475 4.82041 115.43 4.80143 115.397 4.76765C115.363 4.73386 115.345 4.68804 115.345 4.64026C115.343 4.61547 115.346 4.59054 115.354 4.56706C115.362 4.54358 115.375 4.52205 115.391 4.50382C115.408 4.4856 115.428 4.47108 115.451 4.46117C115.473 4.45126 115.497 4.44618 115.522 4.44626C115.548 4.44417 115.573 4.44775 115.597 4.45676C115.621 4.46577 115.643 4.47999 115.661 4.49844C115.68 4.51689 115.694 4.53913 115.703 4.56362C115.711 4.5881 115.715 4.61425 115.713 4.64026ZM115.372 6.77431V5.0837H115.672V6.7466L115.372 6.77431Z" fill="#C00000"/>
<path d="M116.177 5.52716C116.177 5.36087 116.177 5.22229 116.177 5.08372H116.436V5.36087C116.489 5.26164 116.568 5.1793 116.664 5.12302C116.761 5.06675 116.87 5.03875 116.981 5.04215C117.2 5.04215 117.554 5.18072 117.554 5.74888V6.74662H117.254V5.79045C117.254 5.5133 117.159 5.29158 116.886 5.29158C116.793 5.29143 116.702 5.3226 116.628 5.38024C116.554 5.43789 116.501 5.51877 116.477 5.6103C116.469 5.65612 116.469 5.70306 116.477 5.74888V6.74662H116.177V5.52716Z" fill="#C00000"/>
<path d="M118.059 5.52716C118.059 5.36087 118.059 5.22229 118.059 5.08372H118.318V5.36087C118.371 5.26164 118.45 5.1793 118.546 5.12302C118.643 5.06675 118.753 5.03875 118.864 5.04215C119.096 5.04215 119.45 5.18072 119.45 5.74888V6.74662H119.15V5.79045C119.15 5.5133 119.041 5.29158 118.768 5.29158C118.675 5.29143 118.584 5.3226 118.51 5.38024C118.436 5.43789 118.383 5.51877 118.359 5.6103C118.351 5.65612 118.351 5.70306 118.359 5.74888V6.74662H118.059V5.52716Z" fill="#C00000"/>
<path d="M121.428 5.90129C121.428 6.11813 121.343 6.32608 121.192 6.47941C121.041 6.63274 120.837 6.71888 120.623 6.71888C120.41 6.71888 120.205 6.63274 120.054 6.47941C119.903 6.32608 119.819 6.11813 119.819 5.90129C119.809 5.78706 119.823 5.67207 119.86 5.56377C119.897 5.45546 119.956 5.35628 120.033 5.27264C120.11 5.18901 120.204 5.1228 120.308 5.07831C120.412 5.03382 120.524 5.01205 120.637 5.01441C120.749 5.01155 120.86 5.03323 120.963 5.07796C121.065 5.1227 121.157 5.18943 121.233 5.27362C121.308 5.3578 121.364 5.45746 121.398 5.56578C121.431 5.6741 121.442 5.78854 121.428 5.90129ZM120.132 5.90129C120.132 6.27544 120.337 6.55259 120.623 6.55259C120.91 6.55259 121.128 6.27544 121.128 5.90129C121.128 5.52714 120.992 5.24999 120.637 5.24999C120.282 5.24999 120.132 5.59642 120.132 5.91515V5.90129Z" fill="#C00000"/>
<path d="M121.905 5.08374L122.274 6.02605C122.329 6.16566 122.375 6.30924 122.41 6.45563C122.41 6.31706 122.492 6.17848 122.546 6.02605L122.874 5.0976H123.188L122.533 6.76049H122.274L121.646 5.0976L121.905 5.08374Z" fill="#C00000"/>
<path d="M124.32 6.74668V6.53881C124.266 6.61978 124.192 6.68527 124.106 6.72896C124.02 6.77265 123.925 6.79307 123.829 6.78825C123.763 6.79417 123.697 6.78591 123.635 6.76402C123.573 6.74212 123.517 6.70709 123.469 6.66123C123.421 6.61538 123.384 6.55976 123.359 6.49804C123.334 6.43632 123.322 6.36992 123.324 6.30324C123.324 5.90137 123.679 5.67965 124.306 5.69351C124.312 5.64222 124.307 5.59016 124.291 5.54112C124.275 5.49209 124.248 5.44733 124.213 5.41013C124.178 5.37292 124.135 5.34422 124.087 5.32611C124.04 5.30801 123.988 5.30097 123.938 5.3055C123.785 5.31086 123.635 5.35364 123.501 5.43022L123.433 5.23621C123.596 5.13212 123.786 5.07911 123.979 5.08378C124.483 5.08378 124.606 5.43022 124.606 5.7628V6.38638C124.591 6.51991 124.591 6.65473 124.606 6.78825L124.32 6.74668ZM124.32 5.90137C123.992 5.90137 123.624 5.90137 123.624 6.27552C123.62 6.31355 123.624 6.35201 123.636 6.38824C123.648 6.42446 123.668 6.45757 123.694 6.48527C123.72 6.51296 123.752 6.53458 123.787 6.54861C123.822 6.56265 123.859 6.56876 123.897 6.56653C123.984 6.57085 124.069 6.54605 124.141 6.49597C124.212 6.44588 124.266 6.37328 124.292 6.28938C124.297 6.2572 124.297 6.22455 124.292 6.19238L124.32 5.90137Z" fill="#C00000"/>
<path d="M125.397 4.64026V5.12527H125.82V5.34699H125.397V6.24772C125.397 6.45559 125.397 6.5803 125.615 6.5803H125.793V6.81588C125.703 6.83493 125.61 6.83493 125.52 6.81588C125.462 6.81984 125.404 6.81071 125.349 6.78915C125.295 6.76759 125.246 6.73413 125.206 6.69116C125.11 6.56534 125.066 6.40616 125.084 6.24772V5.30542H124.838V5.0837H125.084V4.64026H125.397Z" fill="#C00000"/>
<path d="M126.488 4.64032C126.489 4.66519 126.484 4.68981 126.474 4.71262C126.464 4.73543 126.45 4.75594 126.432 4.77287C126.414 4.78979 126.393 4.80276 126.37 4.81095C126.346 4.81914 126.322 4.82238 126.298 4.82047C126.274 4.82047 126.251 4.81581 126.23 4.80676C126.208 4.7977 126.189 4.78443 126.172 4.76771C126.156 4.75098 126.143 4.73112 126.134 4.70926C126.125 4.68741 126.12 4.66398 126.12 4.64032C126.114 4.60727 126.116 4.57311 126.127 4.54122C126.137 4.50933 126.156 4.4808 126.181 4.45843C126.206 4.43606 126.236 4.42062 126.268 4.41364C126.3 4.40666 126.334 4.40837 126.366 4.4186C126.411 4.43153 126.449 4.46213 126.472 4.50369C126.495 4.54525 126.501 4.59438 126.488 4.64032ZM126.161 6.77437V5.08376H126.461V6.74666L126.161 6.77437Z" fill="#C00000"/>
<path d="M128.439 5.90134C128.449 6.01556 128.434 6.13056 128.397 6.23886C128.36 6.34716 128.301 6.44635 128.224 6.52998C128.147 6.61361 128.053 6.67982 127.949 6.72431C127.845 6.7688 127.733 6.79057 127.621 6.78821C127.512 6.78848 127.404 6.766 127.305 6.72219C127.205 6.67838 127.115 6.61417 127.041 6.53356C126.967 6.45295 126.91 6.35768 126.873 6.25367C126.837 6.14967 126.822 6.03917 126.829 5.92905C126.82 5.81483 126.834 5.69983 126.871 5.59153C126.908 5.48323 126.967 5.38404 127.044 5.30041C127.121 5.21677 127.215 5.15056 127.319 5.10608C127.423 5.06159 127.535 5.03982 127.648 5.04217C127.757 5.0398 127.866 5.06084 127.966 5.10393C128.067 5.14702 128.158 5.21119 128.232 5.29226C128.307 5.37333 128.364 5.46947 128.4 5.57441C128.435 5.67936 128.449 5.79076 128.439 5.90134ZM127.075 5.90134C127.075 6.27549 127.293 6.55264 127.58 6.55264C127.866 6.55264 128.084 6.27549 128.084 5.90134C128.084 5.52718 127.948 5.25004 127.593 5.25004C127.239 5.25004 127.13 5.59647 127.13 5.91519L127.075 5.90134Z" fill="#C00000"/>
<path d="M117.977 10.2804C118.098 10.3497 118.234 10.3878 118.373 10.3912C118.591 10.3912 118.7 10.2942 118.7 10.1556C118.7 10.0171 118.605 9.92006 118.386 9.83691C118.168 9.75377 117.95 9.57362 117.95 9.36576C117.953 9.29454 117.971 9.22476 118.002 9.16089C118.033 9.09702 118.077 9.04046 118.131 8.99481C118.185 8.94917 118.248 8.91546 118.315 8.89581C118.382 8.87617 118.453 8.87104 118.523 8.88075C118.665 8.87818 118.806 8.91151 118.932 8.97775L118.85 9.19947C118.748 9.13525 118.629 9.10164 118.509 9.10247C118.476 9.09864 118.442 9.10179 118.41 9.11174C118.378 9.12168 118.348 9.1382 118.322 9.16027C118.297 9.18235 118.276 9.20951 118.261 9.24009C118.246 9.27066 118.238 9.304 118.236 9.33805C118.236 9.47662 118.332 9.53205 118.55 9.6152C118.768 9.69834 118.986 9.87849 118.986 10.1279C118.986 10.3774 118.755 10.6268 118.373 10.6268C118.21 10.6293 118.049 10.5862 117.909 10.5021L117.977 10.2804Z" fill="#C00000"/>
<path d="M120.541 10.5297C120.391 10.5977 120.228 10.6308 120.064 10.6267C119.953 10.6309 119.843 10.6113 119.74 10.5692C119.637 10.5271 119.544 10.4635 119.466 10.3825C119.389 10.3014 119.33 10.2048 119.292 10.0989C119.254 9.99292 119.238 9.88003 119.246 9.76755C119.242 9.64882 119.262 9.53057 119.305 9.42024C119.349 9.30992 119.414 9.20993 119.498 9.12659C119.581 9.04325 119.68 8.97836 119.789 8.93603C119.899 8.89371 120.015 8.87485 120.132 8.88067C120.273 8.87784 120.413 8.90622 120.541 8.96381V9.19939C120.43 9.16944 120.312 9.16944 120.2 9.19939C120.038 9.19939 119.882 9.26509 119.766 9.38203C119.651 9.49898 119.587 9.65759 119.587 9.82298C119.587 9.98836 119.651 10.147 119.766 10.2639C119.882 10.3809 120.038 10.4466 120.2 10.4466C120.328 10.45 120.455 10.4214 120.569 10.3634L120.541 10.5297Z" fill="#C00000"/>
<path d="M121.223 8.45109C121.223 8.47595 121.218 8.50057 121.209 8.52338C121.199 8.54619 121.185 8.56671 121.167 8.58363C121.149 8.60055 121.128 8.61352 121.104 8.62171C121.081 8.6299 121.057 8.63315 121.032 8.63123C120.995 8.61909 120.963 8.59486 120.941 8.5623C120.919 8.52973 120.908 8.49065 120.91 8.45109C120.91 8.39963 120.93 8.35029 120.966 8.3139C121.001 8.27752 121.05 8.25708 121.101 8.25708C121.14 8.26973 121.174 8.29606 121.197 8.33151C121.219 8.36695 121.229 8.40927 121.223 8.45109ZM120.91 10.5851V8.92224H121.196V10.5851H120.91Z" fill="#C00000"/>
<path d="M121.851 9.80919C121.845 9.88597 121.855 9.96315 121.881 10.0356C121.907 10.108 121.948 10.174 122.001 10.2291C122.054 10.2842 122.117 10.3272 122.188 10.3551C122.259 10.3831 122.334 10.3954 122.41 10.3912C122.569 10.3942 122.726 10.3659 122.874 10.3081V10.5159C122.698 10.5964 122.507 10.6344 122.315 10.6268C122.205 10.6332 122.095 10.6155 121.993 10.5749C121.89 10.5344 121.798 10.4718 121.722 10.3916C121.645 10.3113 121.587 10.2153 121.55 10.11C121.514 10.0047 121.5 9.89264 121.51 9.78147C121.499 9.66963 121.51 9.55661 121.544 9.4495C121.577 9.34238 121.632 9.24347 121.705 9.15893C121.778 9.0744 121.868 9.00606 121.968 8.9582C122.068 8.91033 122.177 8.88396 122.287 8.88074C122.385 8.88199 122.481 8.90406 122.57 8.94552C122.658 8.98697 122.737 9.04688 122.802 9.12137C122.866 9.19585 122.914 9.28324 122.943 9.37786C122.972 9.47248 122.981 9.57222 122.969 9.67061C122.969 9.67061 122.969 9.78147 122.969 9.80919H121.851ZM122.724 9.58747C122.734 9.52737 122.731 9.46577 122.715 9.40704C122.699 9.3483 122.67 9.29387 122.631 9.24759C122.592 9.20131 122.543 9.16432 122.489 9.13924C122.434 9.11416 122.375 9.1016 122.315 9.10246C122.193 9.11238 122.078 9.16706 121.993 9.25629C121.908 9.34552 121.857 9.46322 121.851 9.58747H122.724Z" fill="#C00000"/>
<path d="M123.392 9.36566C123.392 9.19937 123.392 9.06079 123.392 8.92222H123.638V9.19937C123.691 9.10014 123.77 9.0178 123.866 8.96152C123.962 8.90525 124.072 8.87725 124.183 8.88065C124.402 8.88065 124.756 9.01922 124.756 9.58738V10.5851H124.456V9.62895C124.456 9.3518 124.361 9.13008 124.088 9.13008C123.997 9.13123 123.909 9.16123 123.835 9.21589C123.762 9.27055 123.707 9.34714 123.679 9.43495C123.671 9.48547 123.671 9.53685 123.679 9.58738V10.5851H123.379L123.392 9.36566Z" fill="#C00000"/>
<path d="M125.616 8.43726V8.92227H126.052V9.14399H125.616V10.0447C125.616 10.2526 125.616 10.3773 125.847 10.3773H126.025V10.6129C125.934 10.6238 125.843 10.6238 125.752 10.6129C125.632 10.6123 125.516 10.568 125.425 10.4882C125.339 10.3576 125.3 10.2009 125.315 10.0447V9.13013H125.056V8.90841H125.315V8.5204L125.616 8.43726Z" fill="#C00000"/>
<path d="M126.72 8.45109C126.72 8.47596 126.715 8.50057 126.706 8.52338C126.696 8.54619 126.682 8.56671 126.664 8.58363C126.646 8.60055 126.625 8.61352 126.601 8.62171C126.578 8.6299 126.554 8.63315 126.529 8.63123C126.485 8.62774 126.443 8.60722 126.413 8.57381C126.382 8.5404 126.366 8.49656 126.366 8.45109C126.364 8.42629 126.367 8.40137 126.375 8.37788C126.383 8.3544 126.396 8.33287 126.413 8.31465C126.429 8.29642 126.449 8.2819 126.472 8.27199C126.494 8.26208 126.519 8.25701 126.543 8.25708C126.567 8.25701 126.592 8.26208 126.614 8.27199C126.637 8.2819 126.657 8.29642 126.673 8.31465C126.69 8.33287 126.703 8.3544 126.711 8.37788C126.719 8.40137 126.722 8.42629 126.72 8.45109ZM126.366 10.5851V8.92224H126.666V10.5851H126.366Z" fill="#C00000"/>
<path d="M128.098 10.5852V10.3773C128.038 10.455 127.961 10.5179 127.874 10.5611C127.787 10.6043 127.691 10.6268 127.593 10.6267C127.528 10.6364 127.462 10.6325 127.399 10.6151C127.336 10.5977 127.277 10.5672 127.226 10.5256C127.174 10.484 127.132 10.4322 127.102 10.3733C127.071 10.3144 127.053 10.2497 127.048 10.1833C127.048 9.78142 127.402 9.5597 128.043 9.5597C128.05 9.50714 128.045 9.45371 128.028 9.40354C128.011 9.35336 127.983 9.30778 127.946 9.2703C127.909 9.23282 127.865 9.20444 127.815 9.18735C127.766 9.17025 127.713 9.1649 127.662 9.17169C127.512 9.1702 127.365 9.21357 127.239 9.29641V9.10241C127.401 8.99676 127.591 8.94361 127.784 8.94997C128.289 8.94997 128.412 9.29641 128.412 9.62899V10.1833C128.397 10.3168 128.397 10.4516 128.412 10.5852H128.098ZM128.098 9.73985C127.771 9.73985 127.402 9.73985 127.402 10.114C127.4 10.1527 127.406 10.1915 127.42 10.2277C127.434 10.2639 127.455 10.2968 127.482 10.3242C127.509 10.3516 127.541 10.373 127.577 10.3869C127.613 10.4008 127.651 10.407 127.689 10.405C127.776 10.4093 127.861 10.3845 127.933 10.3344C128.004 10.2844 128.058 10.2118 128.084 10.1279C128.09 10.0958 128.09 10.0629 128.084 10.0309L128.098 9.73985Z" fill="#C00000"/>
<path d="M123.638 14.4236V14.2158C123.578 14.2935 123.501 14.3564 123.414 14.3996C123.326 14.4428 123.23 14.4652 123.133 14.4652C123.068 14.469 123.003 14.4592 122.942 14.4365C122.881 14.4139 122.825 14.3787 122.778 14.3333C122.73 14.2879 122.693 14.2332 122.667 14.1724C122.641 14.1117 122.628 14.0463 122.628 13.9802C122.628 13.5783 122.983 13.3566 123.624 13.3566C123.63 13.3053 123.625 13.2533 123.609 13.2042C123.593 13.1552 123.566 13.1104 123.531 13.0732C123.496 13.036 123.453 13.0073 123.405 12.9892C123.358 12.9711 123.306 12.9641 123.256 12.9686C123.101 12.9652 122.949 13.0086 122.819 13.0933L122.751 12.8854C122.918 12.7928 123.106 12.7451 123.297 12.7469C123.801 12.7469 123.924 13.0933 123.924 13.4259V14.0495C123.909 14.183 123.909 14.3178 123.924 14.4513L123.638 14.4236ZM123.638 13.5783C123.31 13.5783 122.942 13.5783 122.942 13.9525C122.94 13.9912 122.946 14.0299 122.96 14.0661C122.974 14.1024 122.995 14.1352 123.022 14.1627C123.049 14.1901 123.081 14.2115 123.117 14.2254C123.152 14.2393 123.19 14.2455 123.229 14.2435C123.317 14.247 123.404 14.2202 123.476 14.1674C123.547 14.1146 123.6 14.039 123.624 13.9525C123.63 13.9251 123.63 13.8967 123.624 13.8693L123.638 13.5783Z" fill="#C00000"/>
<path d="M124.361 13.2735C124.361 13.0795 124.361 12.9132 124.361 12.747H124.62V13.0795C124.648 12.9792 124.707 12.8904 124.788 12.8258C124.869 12.7611 124.967 12.7239 125.07 12.7192H125.165V12.9548H125.056C124.937 12.9834 124.832 13.0528 124.757 13.1512C124.683 13.2496 124.644 13.3711 124.647 13.4953V14.3821H124.347L124.361 13.2735Z" fill="#C00000"/>
<path d="M125.916 12.2758V12.7469H126.366V12.9548H125.943V13.8555C125.943 14.0634 125.943 14.1881 126.161 14.1881H126.338V14.4237C126.252 14.4348 126.165 14.4348 126.079 14.4237C126.018 14.427 125.957 14.4163 125.9 14.3923C125.843 14.3683 125.793 14.3317 125.752 14.2851C125.659 14.1629 125.615 14.0093 125.629 13.8555V12.9548H125.384V12.7192H125.629V12.3312L125.916 12.2758Z" fill="#C00000"/>
<path d="M127.007 12.2896C127.007 12.3866 127.007 12.4697 126.816 12.4697C126.769 12.4697 126.724 12.4508 126.69 12.417C126.657 12.3832 126.638 12.3374 126.638 12.2896C126.638 12.2381 126.659 12.1888 126.694 12.1524C126.73 12.116 126.779 12.0956 126.829 12.0956C126.854 12.0955 126.878 12.1006 126.901 12.1105C126.923 12.1204 126.943 12.1349 126.96 12.1531C126.977 12.1714 126.989 12.1929 126.997 12.2164C127.005 12.2399 127.009 12.2648 127.007 12.2896ZM126.679 14.4236V12.7469H126.979V14.4236H126.679Z" fill="#C00000"/>
<path d="M127.43 14.1189C127.551 14.1882 127.686 14.2263 127.825 14.2297C128.043 14.2297 128.153 14.1189 128.153 13.9803C128.153 13.8417 128.057 13.7586 127.839 13.6754C127.621 13.5923 127.402 13.4121 127.402 13.2043C127.406 13.133 127.423 13.0633 127.454 12.9994C127.486 12.9355 127.53 12.879 127.583 12.8333C127.637 12.7877 127.7 12.754 127.768 12.7343C127.835 12.7147 127.906 12.7095 127.975 12.7193C128.117 12.7167 128.258 12.75 128.384 12.8163L128.303 13.038C128.2 12.9738 128.082 12.9401 127.962 12.941C127.928 12.9371 127.895 12.9403 127.862 12.9502C127.83 12.9602 127.801 12.9767 127.775 12.9988C127.749 13.0208 127.729 13.048 127.714 13.0786C127.699 13.1092 127.69 13.1425 127.689 13.1765C127.689 13.3151 127.784 13.3706 128.003 13.4537C128.221 13.5368 128.439 13.717 128.439 13.9526C128.439 14.1881 128.207 14.4653 127.825 14.4653C127.662 14.4678 127.502 14.4247 127.361 14.3406L127.43 14.1189Z" fill="#C00000"/>
<path d="M55.2604 33.547L56.0106 33.3945L55.7378 33.8518C55.7378 33.5192 55.7378 32.7294 55.7378 32.2582V29.0017H55.2059V28.7107L56.5699 28.3643L56.6926 28.4335V29.5006V30.8032V30.9002V33.3529L56.5562 34.0181L55.3014 33.9211L55.2604 33.547ZM58.2339 32.0503C58.2339 31.108 57.8793 30.6646 57.3746 30.6646C56.9499 30.7416 56.5697 30.9793 56.3107 31.3298V31.205C56.4357 30.8999 56.6427 30.6367 56.908 30.4456C57.1734 30.2544 57.4864 30.143 57.8111 30.1242C58.6159 30.1242 59.2569 30.7893 59.2569 32.0088C59.2873 32.2429 59.2702 32.4808 59.2067 32.708C59.1432 32.9352 59.0347 33.1467 58.8878 33.3297C58.7409 33.5127 58.5587 33.6633 58.3524 33.7721C58.1462 33.881 57.9202 33.9458 57.6883 33.9627C57.1291 33.9627 56.6926 33.6578 56.3244 32.8818V32.7432C56.4312 32.9294 56.5792 33.0877 56.7568 33.2056C56.9344 33.3235 57.1366 33.3977 57.3473 33.4222C57.8384 33.4222 58.2339 32.9788 58.2339 32.0503Z" fill="#C00000"/>
<path d="M59.3934 35.1267C59.4251 35.0036 59.4985 34.8957 59.6009 34.8222C59.7032 34.7487 59.8277 34.7142 59.9526 34.7249C60.0683 34.7264 60.182 34.7562 60.2841 34.8116C60.3862 34.8671 60.4736 34.9466 60.5391 35.0436L60.771 35.3346L60.4846 35.487L60.2663 35.3346C60.7109 35.0591 61.0371 34.6238 61.1802 34.1151L61.4939 33.2144L62.5578 30.1935H62.9943L61.6303 33.9627C61.1938 35.1267 60.8256 35.6672 60.1709 35.6672C60.0847 35.6852 59.9959 35.6854 59.9097 35.6678C59.8236 35.6501 59.7417 35.6151 59.6692 35.5646C59.5966 35.5142 59.5348 35.4494 59.4874 35.3742C59.44 35.299 59.4081 35.2148 59.3934 35.1267ZM60.1026 30.6092L59.3934 30.4983V30.1935H61.3439V30.4983L60.5664 30.6092H60.1026ZM61.2757 34.2537L59.6252 30.1935H60.621L61.7122 33.2144L61.2757 34.2537ZM62.5442 30.6092L61.8349 30.4983V30.1935H63.2671V30.4983L62.6942 30.6092H62.5442Z" fill="#C00000"/>
<path d="M65.2449 29.1819V28.8216H66.3497V29.2928L65.2449 29.1819ZM66.377 33.3391V33.8103H65.2449V33.45L66.2815 33.3391H66.377ZM65.886 31.1358C65.886 30.3598 65.886 29.5699 65.886 28.78H66.8953C66.8953 29.556 66.8953 30.3321 66.8953 31.1358V31.3991C66.8953 32.2444 66.8953 33.0343 66.8953 33.8103H65.886C65.886 33.0481 65.886 32.2583 65.886 31.3991V31.1358ZM66.3497 33.4639H67.2636C68.273 33.4639 68.8595 32.6878 68.8595 31.3437C68.8595 29.9995 68.273 29.2235 67.3045 29.2235H66.3497V28.8216H67.4273C67.7594 28.7923 68.0938 28.8369 68.4071 28.9524C68.7205 29.0678 69.0053 29.2514 69.2417 29.4902C69.478 29.729 69.6603 30.0173 69.7756 30.3351C69.891 30.6528 69.9368 30.9923 69.9098 31.3298C69.9274 31.6778 69.8706 32.0255 69.7433 32.349C69.616 32.6725 69.4212 32.9642 69.1723 33.2039C68.9234 33.4436 68.6263 33.6256 68.3015 33.7375C67.9767 33.8493 67.6319 33.8884 67.2909 33.8519H66.3497V33.4639Z" fill="#C00000"/>
<path d="M75.2839 31.3437C75.328 31.6802 75.3007 32.0225 75.204 32.3475C75.1073 32.6725 74.9434 32.9728 74.7232 33.2282C74.503 33.4836 74.2316 33.6883 73.9272 33.8285C73.6229 33.9687 73.2925 34.0413 72.9583 34.0413C72.6241 34.0413 72.2938 33.9687 71.9894 33.8285C71.685 33.6883 71.4137 33.4836 71.1935 33.2282C70.9733 32.9728 70.8093 32.6725 70.7126 32.3475C70.6159 32.0225 70.5887 31.6802 70.6327 31.3437C70.6047 31.0121 70.6438 30.6782 70.7475 30.3626C70.8513 30.0469 71.0175 29.7562 71.236 29.5083C71.4545 29.2603 71.7206 29.0604 72.018 28.9209C72.3153 28.7814 72.6377 28.7051 72.9651 28.6969C73.2934 28.7009 73.6171 28.7744 73.9158 28.9127C74.2145 29.051 74.4815 29.2511 74.6997 29.5002C74.9179 29.7493 75.0826 30.0419 75.1832 30.3593C75.2838 30.6768 75.3181 31.012 75.2839 31.3437ZM72.9651 33.5747C73.8654 33.5747 74.2337 32.5354 74.2337 31.3437C74.2337 30.1519 73.8654 29.1126 72.9651 29.1126C72.0649 29.1126 71.6966 30.1381 71.6966 31.3437C71.6966 32.5493 72.0649 33.5747 72.9651 33.5747Z" fill="#C00000"/>
<path d="M78.3802 32.7433C78.3802 32.2999 78.1347 32.092 77.5891 31.8703L77.289 31.7317C76.4706 31.3853 75.925 30.9418 75.925 30.1242C75.925 29.3066 76.648 28.7385 77.6846 28.7385C78.1699 28.7204 78.6481 28.8613 79.0486 29.1404V30.152H78.4757L78.2848 29.0156L78.8167 29.2512V29.5838C78.6811 29.4385 78.5185 29.322 78.3382 29.2411C78.1578 29.1602 77.9635 29.1165 77.7664 29.1126C77.6571 29.0991 77.5462 29.1089 77.4407 29.1414C77.3353 29.174 77.2378 29.2285 77.1543 29.3016C77.0708 29.3746 77.0033 29.4646 76.9561 29.5657C76.9088 29.6668 76.8828 29.7768 76.8798 29.8887C76.8798 30.3321 77.1526 30.5677 77.6437 30.7755L77.9574 30.9141C78.9258 31.3298 79.3214 31.7594 79.3214 32.4939C79.3214 33.2283 78.6121 33.9766 77.4664 33.9766C76.9174 33.989 76.3753 33.8501 75.8978 33.5747V32.4939H76.4706L76.6752 33.6856L76.1433 33.4916V33.1175C76.4972 33.401 76.9338 33.557 77.3845 33.5609C77.9983 33.5609 78.3802 33.2422 78.3802 32.7433Z" fill="#C00000"/>
<path d="M82.2404 32.7432C82.2404 32.2998 81.9948 32.0919 81.4492 31.8702L81.1492 31.7316C80.3308 31.3852 79.7852 30.9417 79.7852 30.1242C79.7852 29.3066 80.5081 28.7384 81.5584 28.7384C82.0438 28.7193 82.5223 28.8603 82.9224 29.1403V30.1519H82.3495L82.1585 29.0156L82.7041 29.2511V29.5837C82.4285 29.2927 82.0512 29.1234 81.6538 29.1126C81.5438 29.0991 81.4322 29.1089 81.326 29.1413C81.2199 29.1737 81.1214 29.228 81.0369 29.3009C80.9524 29.3737 80.8836 29.4635 80.8349 29.5647C80.7861 29.6658 80.7584 29.7761 80.7536 29.8886C80.7536 30.332 81.0264 30.5676 81.5174 30.7755L81.8448 30.914C82.8132 31.3298 83.2088 31.7593 83.2088 32.4938C83.2088 33.2282 82.4995 33.9765 81.3538 33.9765C80.8142 33.9819 80.2827 33.8434 79.8124 33.5747V32.4938H80.3853L80.5763 33.6855L79.9898 33.4915V33.1174C80.3437 33.4009 80.7803 33.5569 81.231 33.5608C81.8584 33.5608 82.2404 33.2421 82.2404 32.7432Z" fill="#C00000"/>
<path d="M83.618 29.1819V28.8216H85.8686V29.1819L84.8319 29.2928H84.641L83.618 29.1819ZM84.8319 33.3391L85.8686 33.45V33.8103H83.618V33.45L84.641 33.3391H84.8319ZM84.2591 31.1358C84.2591 30.3598 84.2591 29.5699 84.2591 28.78H85.2684C85.2684 29.556 85.2684 30.3321 85.2684 31.1358V31.4545C85.2684 32.2444 85.2684 33.0343 85.2684 33.8103H84.2591C84.2591 33.0481 84.2591 32.2583 84.2591 31.4684V31.1358Z" fill="#C00000"/>
<path d="M86.4415 29.1819V28.8216H87.5599V29.2928H87.4645L86.4415 29.1819ZM87.5599 33.3391V33.8103H86.4415V33.45L87.4645 33.3391H87.5599ZM87.0825 31.1358C87.0825 30.3598 87.0825 29.5699 87.0825 28.78H88.0919C88.0919 29.556 88.0919 30.3321 88.0919 31.1358V31.3991C88.0919 32.2444 88.0919 33.0343 88.0919 33.8103H87.0825C87.0825 33.0481 87.0825 32.2583 87.0825 31.4684V31.1358ZM89.5377 28.8216L89.9879 29.2235H87.5599V28.8216H90.1925V30.2073H89.6741L89.5377 28.8216ZM89.2649 31.4684H87.5599V31.0804H89.224L89.2649 31.4684ZM90.438 32.5215V33.9073H87.71V33.5054H90.247L89.7969 33.9073L90.0288 32.5215H90.438ZM89.074 31.1358L89.1831 30.3736H89.5377V32.0781H89.1422L89.0331 31.2744L89.074 31.1358Z" fill="#C00000"/>
<path d="M90.9017 29.1819V28.8216H92.0339V29.2928H91.9384L90.9017 29.1819ZM92.1293 33.3391L93.1523 33.45V33.8103H90.9017V33.45L91.9384 33.3391H92.1293ZM91.5428 31.1358C91.5428 30.3598 91.5428 29.5699 91.5428 28.78H92.5385C92.5385 29.5699 92.5385 30.3182 92.5385 31.1774V31.4129C92.5385 32.2444 92.5385 33.0343 92.5385 33.8103H91.5428C91.5428 33.0481 91.5428 32.2583 91.5428 31.4684V31.1358ZM92.0339 31.1358H92.9477C93.7116 31.1358 94.0253 30.6924 94.0253 30.1519C94.0253 29.6115 93.6843 29.2096 93.0023 29.2096H92.0339V28.8077H93.1523C94.3117 28.8077 94.9801 29.2928 94.9801 30.1103C94.9801 30.7201 94.5163 31.3021 93.3569 31.3852C93.5186 31.364 93.6828 31.3762 93.8398 31.4209C93.9968 31.4655 94.1433 31.5419 94.2706 31.6454C94.3979 31.7488 94.5034 31.8773 94.5807 32.023C94.6581 32.1688 94.7058 32.3289 94.7209 32.4938L94.9937 33.7133L94.5709 33.45L95.512 33.547V33.9073C95.2957 33.9753 95.0701 34.0081 94.8437 34.0043C94.2845 34.0043 93.998 33.8519 93.9162 33.3807L93.6979 32.3275C93.5888 31.7594 93.3569 31.5931 92.825 31.5931H92.0339V31.1358Z" fill="#C00000"/>
</svg>
