<svg width="31" height="31" viewBox="0 0 31 31" fill="none" xmlns="http://www.w3.org/2000/svg">
<path d="M3.14575 27.945L3.21575 27.605C3.76575 25.605 4.31575 23.605 4.87575 21.605C4.9057 21.5127 4.91583 21.4151 4.90549 21.3186C4.89515 21.2221 4.86457 21.1289 4.81575 21.045C3.34005 18.3285 2.88895 15.1724 3.5446 12.1513C4.20024 9.13019 5.91903 6.44499 8.38802 4.58458C10.857 2.72417 13.912 1.81229 16.9968 2.01495C20.0816 2.21761 22.991 3.52133 25.1954 5.68876C27.3998 7.8562 28.7525 10.7432 29.0073 13.8241C29.262 16.905 28.4019 19.975 26.5835 22.4751C24.7651 24.9752 22.1093 26.7391 19.0997 27.4457C16.0901 28.1523 12.9268 27.7546 10.1858 26.325C10.0356 26.2806 9.87586 26.2806 9.72575 26.325L3.56575 27.815L3.14575 27.945ZM6.14575 24.945L6.49575 24.875C7.61575 24.575 8.72575 24.305 9.83575 23.985C9.97454 23.9438 10.1206 23.9331 10.2639 23.9538C10.4072 23.9745 10.5443 24.0261 10.6658 24.105C12.9414 25.4795 15.6497 25.9505 18.2558 25.425C21.0522 24.9198 23.5389 23.3375 25.1812 21.0183C26.8235 18.6992 27.4904 15.8282 27.0385 13.0226C26.5866 10.217 25.052 7.70064 22.7646 6.01442C20.4772 4.3282 17.6195 3.60671 14.8058 4.00504C12.0352 4.36013 9.51825 5.7984 7.80575 8.00504C6.8438 9.16314 6.14085 10.5137 5.74414 11.966C5.34743 13.4183 5.26615 14.9387 5.50575 16.425C5.72094 17.9544 6.27437 19.4165 7.12575 20.705C7.18413 20.7826 7.22281 20.8732 7.23849 20.969C7.25416 21.0648 7.24636 21.1629 7.21575 21.255C6.98575 22.055 6.77575 22.855 6.55575 23.655C6.40575 24.035 6.29575 24.455 6.16575 24.935L6.14575 24.945Z" fill="#C00000"/>
<path d="M19.8558 21.395C19.1077 21.3793 18.3689 21.2268 17.6758 20.945C16.0755 20.392 14.6054 19.5174 13.3558 18.375C11.9052 16.9896 10.7221 15.3489 9.86575 13.535C9.40736 12.6033 9.3077 11.5355 9.58575 10.535C9.78833 9.80009 10.2147 9.1465 10.8058 8.665C11.0497 8.482 11.3395 8.37018 11.6431 8.34193C11.9468 8.31369 12.2523 8.37013 12.5258 8.505C12.7204 8.6268 12.8738 8.80456 12.9658 9.015C13.3058 9.865 13.6258 10.715 13.9658 11.585C14.0193 11.7714 14.0015 11.971 13.9158 12.145C13.7547 12.4008 13.567 12.6388 13.3558 12.855C12.7358 13.545 12.7258 13.655 13.1958 14.445C14.1145 15.975 15.4452 17.2156 17.0358 18.025C17.152 18.0835 17.2724 18.1336 17.3958 18.175C17.5313 18.2413 17.6859 18.2576 17.8323 18.221C17.9786 18.1844 18.1074 18.0973 18.1958 17.975C18.5058 17.595 18.8458 17.235 19.1958 16.855C19.5458 16.475 19.5858 16.485 19.9558 16.665C20.5758 16.965 21.1758 17.285 21.7758 17.595C22.0558 17.745 22.3258 17.905 22.6058 18.045C22.6987 18.0823 22.776 18.1503 22.8251 18.2375C22.8742 18.3248 22.8921 18.4262 22.8758 18.525C22.9058 19.1147 22.7311 19.6967 22.3812 20.1724C22.0313 20.6481 21.5277 20.9881 20.9558 21.135C20.5999 21.2623 20.2309 21.3495 19.8558 21.395Z" fill="#C00000"/>
</svg>
